<svg width="51" height="50" viewBox="0 0 51 50" fill="none" xmlns="http://www.w3.org/2000/svg">
<path d="M25.5 0C11.6895 0 0.5 11.1895 0.5 25C0.5 38.8105 11.6895 50 25.5 50C39.3105 50 50.5 38.8105 50.5 25C50.5 11.1895 39.3105 0 25.5 0ZM25.5 9.67742C30.3992 9.67742 34.371 13.6492 34.371 18.5484C34.371 23.4476 30.3992 27.4194 25.5 27.4194C20.6008 27.4194 16.629 23.4476 16.629 18.5484C16.629 13.6492 20.6008 9.67742 25.5 9.67742ZM25.5 44.3548C19.5827 44.3548 14.2802 41.6734 10.7319 37.4798C12.627 33.9113 16.3367 31.4516 20.6613 31.4516C20.9032 31.4516 21.1452 31.4919 21.377 31.5625C22.6875 31.9859 24.0585 32.2581 25.5 32.2581C26.9415 32.2581 28.3226 31.9859 29.623 31.5625C29.8548 31.4919 30.0968 31.4516 30.3387 31.4516C34.6633 31.4516 38.373 33.9113 40.2681 37.4798C36.7198 41.6734 31.4173 44.3548 25.5 44.3548Z" fill="#111111"/>
</svg>
